<svg enable-background="new 0 5 160 260" height="260" viewBox="0 5 160 260" width="160" xmlns="http://www.w3.org/2000/svg"><g fill="#fff"><ellipse cx="61.6" cy="80.3" rx="1.2" ry="1.2"/><path d="m61.6 82.3c1.2 0 2.5.6 2.5.9v4.2c0 .3-.6.6-1.2.9v5.7h-2.5v-5.7c-.9-.3-1.2-.6-1.2-.9v-4.2c-.2-.6 1.1-.9 2.4-.9z"/><path d="m135.9 118.1c1.2 0 2.5.9 2.5 2.4 0 1.2-.9 2.4-2.5 2.4-1.2 0-2.5-.9-2.5-2.4.1-1.2 1-2.4 2.5-2.4z"/><path d="m131 133v-7.1c0-1.2 1.9-2.1 5-2.1 2.8 0 5 .9 5 2.1v7.1c0 .9-.6 1.4-2.2 1.8v12.8h-5.4v-12.8c-1.8-.3-2.4-.8-2.4-1.8z"/><path d="m40 105.6c-.6 0-1.2-.6-1.2-1.2s.6-1.2 1.2-1.2 1.2.6 1.2 1.2-.6 1.2-1.2 1.2z"/><path d="m126.6 117v-5.4h-1.3v-5.1c0-.6.9-.9 2.5-.9-.3-.3-.6-.6-.6-1.2 0-.9.6-1.4 1.5-1.4s1.5.6 1.5 1.4c0 .6-.3.9-.6 1.2 1.2 0 2.5.6 2.5.9v5.1h-1.1v5.4z"/><path d="m101.6 135.1h-1.6c-.3 0-.6-.3-.6-.6v-5.1h-.3c-.3 0-.6-.3-.6-.6v-4.7c0-.3.3-.6.6-.6h3.7c.3 0 .6.3.6.6v4.4c0 .3-.3.6-.6.6h-.3v5.4c-.3.3-.6.6-.9.6z"/><ellipse cx="100.6" cy="121.4" rx=".9" ry=".9"/><path d="m86.9 84.1c0-.9.9-1.4 1.5-1.4h4.6c.6 0 1.5.6 1.5 1.4v7.1c0 .6-.3 1.2-.9 1.4v7.4c0 .6-.6 1.2-1.2 1.2s-1.2-.6-1.2-1.2v-7.4h-.9v7.4c0 .6-.6 1.2-1.2 1.2s-1.2-.6-1.2-1.2v-7.4c-.6 0-.9-.6-.9-1.4-.1.1-.1-7.1-.1-7.1z"/><ellipse cx="90.6" cy="80.3" rx="1.9" ry="1.8"/><path d="m71 28.9c0-.6.6-1.2 1.2-1.2s1.2.6 1.2 1.2-.6 1.1-1.2 1.1c-.9.1-1.2-.6-1.2-1.1z"/><path d="m74.7 31.9v4.1c0 .3-.6.6-1.2.9v6.7h-3.1v-6.6c-.9-.3-1.2-.6-1.2-.9v-4.1c0-.6 1.2-.9 2.8-.9 1.5-.4 2.7.2 2.7.8z"/><path d="m61 34.3-1-3.9c-.3-1.8 2.2-2.1 2.8-.6l.6 3.3h2.6c.6 0 1.2.6 1.2 1.2v4.7c0 1.2-1.9 1.2-1.9 0v-3.6h-3.1c-.6 0-.9-.5-1.2-1.1z"/><ellipse cx="60.7" cy="26.8" rx="1.5" ry="1.4"/><path d="m82.5 14.3v6.3c0 .3-.3.9-.9.9-.3 0-.9-.3-.9-.9v-6.3h-.6v6.3c0 .3-.3.9-.9.9-.3 0-.9-.3-.9-.9v-6.3c-.3 0-.6-.3-.6-.9v-4.5c-.1-.6.3-.9.9-.9h3.7c.6 0 .9.3.9.9v4.4c-.1.4-.1.7-.7 1z"/><ellipse cx="80.7" cy="6.2" rx="1.2" ry="1.2"/><path d="m95.4 38.1v1.2.9h-1.9v-.9-1.2-1.8-1.8-1.2h1.5 2.2l.9-4.2 2.8.6-.9 4.8-.3 1.2h-1.2-3.1v.6z"/><path d="m100 28.9c-.9 0-1.5-.6-1.5-1.4s.6-1.5 1.5-1.5 1.5.6 1.5 1.4c.1.6-.9 1.5-1.5 1.5z"/><ellipse cx="95.7" cy="13.7" rx="1.2" ry="1.2"/><path d="m110.6 75.1c0-.6.6-1.2.9-1.2.6 0 .9.6.9 1.2s-.6 1.2-.9 1.2c-.6 0-.9-.3-.9-1.2z"/><path d="m112.3 88.9v-6.3h-.9v6.3h-1.2v-9.9h-1v3.9h-1v-3.9c0-.6.3-1.8 1.2-1.8h4.7c.9 0 1.2 1.2 1.2 1.8v3.9h-.9v-3.9h-.9v9.9c-.1 0-1.2 0-1.2 0z"/><path d="m91.6 18.7c-.3.6-1.2 1.8-1.5 1.8 0 0-.3 0-.3.6v6h-1.9-1.9v-6c0-.6-.3-.6-.3-.6s-.9-1.2-1.2-1.8c-.3-.3-.3-.6-.3-.9v-5.7c0-.9.6-1.4 1.5-1.4h1.2c-.3-.3-.6-.9-.6-1.4 0-1.2.9-2.1 1.9-2.1.9 0 1.9.9 1.9 2.1 0 .6-.3 1.2-.6 1.4h1.2c.9 0 1.5.6 1.5 1.4v5.7c-.3.3-.3.6-.6.9z"/><ellipse cx="80.7" cy="54.3" rx="3.4" ry="3.3"/><path d="m87.6 61.7v10.7c0 1.2-1.2 1.8-3.1 2.4v14.9h-3.7-3.7v-14.9c-1.9-.6-3.1-1.4-3.1-2.4v-10.7c0-1.8 3.1-3 6.9-3 3.5 0 6.7 1.3 6.7 3z"/><ellipse cx="100.3" cy="77" rx="1.5" ry="1.4"/><path d="m103.1 79c.9 0 1.5.6 1.5 1.4v5.4c0 .3-.3.6-.6.6s-.6-.3-.6-.6v-4.4h-.9v11.6c0 .6-.3.9-.9.9s-.9-.3-.9-.9v-6.9h-.7-.6v6.9c0 .6-.3.9-.9.9s-.9-.3-.9-.9v-11.6h-.9v4.4c0 .3-.3.6-.6.6s-.6-.3-.6-.6v-5.4c0-.9.6-1.4 1.5-1.4h2.8z"/><path d="m61 95.1c1.2 0 1.9.9 1.9 2.1s-.6 2.1-1.9 2.1c-1.2 0-1.9-.9-1.9-2.1-.1-1.2.6-2.1 1.9-2.1z"/><path d="m57.5 106.8c0 .3-.3.9-.9.9-.3 0-.9-.3-.9-.9l.3-4.7c0-.9.6-1.8 1.9-1.8h3.1 3.1c.9 0 1.9.9 1.9 1.8l.3 4.7c0 .3-.3.9-.9.9-.3 0-.9-.3-.9-.9l-.3-4.4h-.9l.6 15.3c0 .6-.6 1.2-1.2 1.2s-1.2-.6-1.2-1.2v-10.1h-.5-.6v10.1c0 .6-.6 1.2-1.2 1.2s-1.2-.6-1.2-1.2l.6-15.3h-.9c.1-.1-.2 4-.2 4.4z"/><path d="m120 103.5c0-.6.6-1.2 1.2-1.2s1.2.6 1.2 1.2-.6 1.2-1.2 1.2-1.2-.3-1.2-1.2z"/><path d="m119.7 116.3v-5.1c-.3 0-.6 0-.9 0s-.6-.3-.6-.6v-4.2c0-.6.6-1.2 1.2-1.2h3.7c.6 0 1.2.6 1.2 1.2v4.2c0 .3-.3.6-.6.6s-.6 0-.9 0v5.1c0 .3-.3.6-.6.6h-1.9c-.3.1-.6-.3-.6-.6z"/><path d="m78.8 23.8c0-.9.9-1.8 1.9-1.8s1.9.9 1.9 1.8-.9 1.8-1.9 1.8c-1.3 0-1.9-.9-1.9-1.8z"/><path d="m85.3 28.9v5.1c0 1.2 0 2.1-1.5 2.4v9.3h-2.5v-9.6h-.6-.6v9.3h-2.5v-9.3c-1.6-.3-1.6-1.2-1.6-2.4v-5.1c0-1.2 1.2-2.4 2.5-2.4h2.2 2c1.4.3 2.6 1.5 2.6 2.7z"/><path d="m124.4 126.4v-3.6c-.6 0-.9.3-.9.6v3.9c-.9 0-1.2-1.2-1.2-1.2v-2.7c0-.9 0-1.2 0-1.2.3-.6.9-.9 2.8-.9v-.6c-.3-.3-.6-.6-.6-1.2s.6-1.4 1.5-1.4 1.5.6 1.5 1.4c0 .6-.3.9-.6 1.2v.6c1.9 0 2.5.3 2.8.9v1.2 2.7s0 1.2-1.2 1.2v-3.9c0-.6-.3-.6-.9-.6v3.6l.6 8.7h-1.5l-.6-6.6c0-.3 0-.3-.3-.3s-.3 0-.3.3l-.6 6.6h-.9z"/><path d="m15 134.8v-.6c-.3-.3-.3-.6-.3-.9 0-.6.6-1.2.9-1.2.6 0 .9.6.9 1.2 0 .3 0 .6-.3.9v.6c2.2 0 2.2.6 2.2 2.4v2.4c0 .3 0 .9-.6.9h-.3v.6 5.4h-.9l-.3-5.1h-.6l-.3 5.1h-.9v-5.4-.6h-.3c-.6 0-.9-.3-.9-.9v-2.4c-.5-1.8-.8-2.4 1.7-2.4z"/><path d="m141.9 134c0-.6.3-1.2.9-1.2s.9.6.9 1.2-.3.9-.6.9h-.6c-.6-.1-.6-.4-.6-.9z"/><path d="m141.6 139.3c-.9 0-1.2-.3-1.2-1.2v-1.8s0-1.4.9-1.4h1.2.3.3.9c1.2 0 .9 1.4.9 1.4v1.8c0 .9-.3 1.2-.9 1.2h-.3l1.2 6.6c-.9 0-1.2-.3-1.5-.9-.3-.9-1.2-4.2-1.2-4.2s-.9 3.3-1.2 4.2c-.3.6-.6.9-1.5.9z"/><path d="m142.8 135.1h-.3.6z"/><ellipse cx="61.6" cy="121.4" rx="1.2" ry="1.2"/><path d="m61.6 135.1h-1.9v-6.3c-.6 0-1.2-.6-1.2-1.4v-2.7c0-.9.6-1.4 1.5-1.4h1.2 1.2c.9 0 1.5.6 1.5 1.4v2.7c0 .6-.6 1.2-1.2 1.4v6.3z"/><path d="m18.2 126.4c0-1.8 1.2-3.6 3.1-3.6h.3l1.5 2.7 1.5-2.7h.3c1.9 0 3.1 1.4 3.1 3.6v6.6c0 1.4-.9 2.7-1.9 3v10.1c0 .9-.3 1.4-.9 1.4h-2.1-2.2c-.6 0-.9-.6-.9-1.4v-10.1c-.9-.6-1.9-1.8-1.9-3v-6.6z"/><ellipse cx="23.4" cy="120.3" rx="2.2" ry="2.1"/><path d="m42.2 103.2c-.3 0-.9-.6-.9-1.2v-6.9c-.9-.3-1.2-1.2-1.2-2.4v-4.4c0-1.4.9-2.4 2.5-2.4h.3l1.2 3.3 1.2-3.3h.3c1.2 0 2.5.9 2.5 2.4v4.4c0 .9-.6 1.8-1.2 2.4v6.9c0 .6-.3 1.2-.9 1.2h-1.7z"/><ellipse cx="44.1" cy="84.1" rx="1.5" ry="1.4"/><path d="m90.3 134.8c1.9 0 3.1.3 3.1 1.4s0 2.1 0 3.3l-1.2.6-.6 5.1h-2.8l-.6-5.1-1.2-.6c0-1.2 0-2.1 0-3.3.2-1.1 1.5-1.4 3.3-1.4z"/><ellipse cx="90.3" cy="132.1" rx="1.5" ry="1.4"/><path d="m131.3 89.7v3.6 1.8h-4.4-1.2l-2.8 4.7-2.5-1.4.9-1.4.9.6 2.5-3.9h4.7v-1.2h-3v-1.4h3.1v-1.2c-.6-.3-.9-.9-.9-1.8 0-1.2.9-1.8 1.9-1.8 1.2 0 1.9.9 1.9 1.8.1.5-.5 1.3-1.1 1.6z"/><ellipse cx="135.6" cy="103.5" rx="1.2" ry="1.2"/><path d="m138.8 111.8h-.6s-.3 0-.3-.3-.3-2.7-.3-2.7h-.6v8s0 .3-.3.3h-1.9c-.3 0-.3-.3-.3-.3 0-.3 0-8 0-8 0-.3-.6 0-.6 0l-.3 2.7c0 .3-.3.3-.3.3h-.6c-.3 0-.3-.3-.3-.3l.9-6.6h2.5 2.5l.5 6.9c.3 0 .3 0 0 0z"/><ellipse cx="129.8" cy="137" rx=".9" ry="1.2"/><path d="m128.4 139h1.5 1.5c.9 0 .9.9.9 1.2v3.9h-1.2v5.4h-1.1-.3-1.2v-5.5h-1.2v-3.9c-.1-.5.2-1.1 1.1-1.1z"/><path d="m90.3 42.9c0 .3-.6.6-1.5.6s-1.5-.3-1.5-.6v-5.7h-.6c-.3 0-.6-.3-.6-.6v-4.7c0-.3.3-.6.6-.6h4c.3 0 .6.3.6.6v4.7c0 .3-.3.6-.6.6h-.6v5.7z"/><ellipse cx="88.8" cy="29.2" rx=".9" ry=".9"/><path d="m97.2 23.5-.3 6.6c0 .6-.3.6-.3.6h-.3-.6-.9s-.3 0-.3-.6l-.3-6.6h-1.2v-1.8-4.2c0-.9.6-1.8 1.2-1.8h2.8c.6 0 1.2.9 1.2 1.8v4.2 1.8z"/><path d="m75.9 20.3h-.3v5.7c0 .6-.3.9-.9.9h-3.1c-.3 0-.9-.3-.9-.9v-5.7c-.3 0-.9-.3-.9-.9v-7.5c-.1-.6.9-1.2 2.7-1.2-.6-.3-.9-.9-.9-1.4 0-.9.9-1.8 1.9-1.8s1.9.9 1.9 1.8c0 .6-.3 1.2-.9 1.4 1.5 0 2.8.6 2.8 1.2v7.4c-.4.3-.8 1-1.4 1z"/><ellipse cx="65.3" cy="14" rx="1.2" ry="1.4"/><ellipse cx="68.1" cy="54.8" rx="1.9" ry="1.8"/><path d="m72.2 66.8h-1.2v10.5h-2l-.9-8.2-1.2 8.2h-1.6v-10.5h-1.5l.6-9.2h3.7 3.5z"/><ellipse cx="58.4" cy="55.1" rx="2.2" ry="2.1"/><path d="m58.4 57.8h2.2c.9 0 1.5.6 1.5 1.4v3.6c0 .3 0 .6-.3.9 0 .3-.9.9-1.2 1.4l-.3.3v3.3c0 .3-.3.6-.6.6h-1.5-1.5c-.3 0-.6-.3-.6-.6v-3.3s0-.3-.3-.3c-.3-.3-1.2-1.2-1.2-1.4-.3-.3-.3-.6-.3-.9v-3.6c0-.9.6-1.4 1.5-1.4z"/><path d="m106.9 65.3c0 .3-.3.6-.6.6h-.9v6.6h-5.4v-6.6h-.9c-.3 0-.6-.3-.6-.6v-5.3-.3s0 0 0-.3 0 0 .3-.3 1.2-.6 1.9-.6c.9-.3 2.5-.3 3.4 0h.6c.6.3 1.5.6 1.5.9v.3 5.7z"/><ellipse cx="102.5" cy="55.4" rx="2.2" ry="2.1"/><path d="m96.9 62.6v5.1h-1.2l.3 9.6h-2.5l-.9-8-.9 8h-2.2l.3-9.6h-1.2v-5.1c.3-4.4 4.4-4.4 4.4-4.4s3.9-.1 3.9 4.4z"/><ellipse cx="92.8" cy="55.1" rx="2.2" ry="2.1"/><path d="m59 78.1v3.3c0 .6-.3.9-.9.9h-.3v5.4c0 .3-.3.6-.6.6h-1.5c-.3 0-.6-.3-.6-.6v-5.4c-.6 0-.9-.6-.9-.9v-3.3c0-.6.6-1.2 1.2-1.2h2.8c.5.1.8.7.8 1.2z"/><ellipse cx="56.6" cy="75.1" rx="1.2" ry="1.2"/><path d="m115 94.3c0-.6.6-1.2 1.2-1.2s1.2.6 1.2 1.2-.6 1.2-1.2 1.2c-.5-.4-1.2-.7-1.2-1.2z"/><path d="m118.8 97v3.9c0 .3-.6.6-1.2.9v5.1c0 .3 0 .3-.3.3h-1.9c-.3 0-.3 0-.3-.3v-5.1c-.9-.3-1.2-.6-1.2-.9v-3.9c0-.6 1.2-.9 2.5-.9 1.1-.4 2.4.2 2.4.9z"/><path d="m30 91c-.6 0-1.2-.6-1.2-1.2s.6-1.4 1.2-1.4 1.2.6 1.2 1.4c.4.6-.3 1.2-1.2 1.2z"/><path d="m30.9 91.8 1.9.9h1.9s.3 0 .3.3l.9-2.4 2.8.9-1.2 3-2.5-.6v.3s0 .3-.3.3h-2.5l-.9-.3v3h3.1c.6 0 .6.6.6.6v4.2h-2.2v-2.3h-4.4c-.6 0-.9-.6-.9-.6v-6.6c-.1-.6.6-.6.6-.6h1.9c.6-.1.9-.1.9-.1z"/><path d="m36.3 102v-5.4h-3.1c-.3 0-.6-.3-.6-.6s.3-.6.6-.6h6.8c.3 0 .6.3.6.6s-.3.6-.6.6h-2.5v5.4z"/><path d="m31.3 117v-3.6c0-.6 0-.6 0-.6s-.9-.6-1.2-.9c0-.3-.3-.3-.3-.6v-3.3c0-.6.6-1.2 1.2-1.2h2.2 2.2c.6 0 1.2.6 1.2 1.2v3.3c0 .3 0 .6-.3.6-.3.3-.9.6-1.2.9v.6 3.6h-1.9z"/><ellipse cx="33.1" cy="104.4" rx="1.5" ry="1.4"/><path d="m25.6 105c-.6 0-1.2-.6-1.2-1.2s.6-1.2 1.2-1.2 1.2.6 1.2 1.2c.1.6-.5 1.2-1.2 1.2z"/><path d="m28.5 107.4v2.7c0 .6 0 1.2-.9 1.4v5.4c0 .3-.3.3-.6.3s-.6-.3-.6-.3v-5.4h-.6-.6v5.4c0 .3-.3.3-.6.3s-.6-.3-.6-.3v-5.4c-.9 0-.6-.6-.6-1.4v-2.7c0-.9.6-1.4 1.5-1.4h1.2.9c.9-.1 1.5.4 1.5 1.4z"/><path d="m35.1 118.1c.9 0 1.5.6 1.5 1.4s-.6 1.5-1.5 1.5-1.5-.6-1.5-1.4c-.2-.6.4-1.5 1.5-1.5z"/><path d="m31.6 135.7c0-.3 0-.3 0 0l1.9-7.4v-4.2h-.9v3.6c0 .3-.3.6-.6.6s-.6-.3-.6-.6v-3.6s0-1.8 1.5-1.8h2.2 2.2c1.5 0 1.5 1.8 1.5 1.8v3.6c0 .3-.3.6-.6.6s-.6-.3-.6-.6v-3.6h-1.4v4.2l1.9 7.4v.3c0 .3-.3.9-.9.9-.3 0-.6-.3-.6-.6l-1.5-5.7-1.9 5.1c0 .3-.3.6-.6.6-.7 0-1-.3-1-.6z"/><ellipse cx="100.6" cy="97" rx="1.9" ry="1.8"/><ellipse cx="80.7" cy="97" rx="2.8" ry="2.7"/><path d="m74.4 113.7.6-12.6c0-.3.3-.6.6-.6h5 5c.3 0 .6.3.6.6l.6 12.6c0 .3-.3.6-.6.6h-1.5l.9 14.6c0 .3-.3.6-.6.6h-2.1c-.3 0-.6-.3-.6-.3l-1.5-11.3-1.5 11.3c0 .3-.3.3-.6.3h-2.2c-.3 0-.6-.3-.6-.6l.9-14.6h-1.5c-.6 0-.9-.3-.9-.6z"/><path d="m71.3 101.1c-.3 0-.3 0 0 0l-.3-3.3h1.9v3s0 .3-.3.3z"/><path d="m69.7 101.1h-1.5s-.3 0-.3-.3v-3h1.8v3.3c.4 0 .4 0 0 0z"/><ellipse cx="70.7" cy="80.3" rx="2.2" ry="2.1"/><path d="m75.6 86.8v.6l-1.9.9v9h-3-3.4v-9l-1.9-1.2v-.3-.3c0-1.8.9-3.6 3.1-4.2h.3s1.5 2.7 1.9 2.7c.6 0 1.9-2.7 1.9-2.7h.3c1.8.9 2.7 2.4 2.7 4.5z"/><path d="m64.7 118.4v-4.4c0-2.4.3-2.7.3-2.7.3-.9 2.2-1.2 3.4-1.2v-.9c-.3-.3-.6-.9-.6-1.4 0-.9.6-1.8 1.5-1.8s1.5.9 1.5 1.8c0 .6-.3 1.2-.6 1.4v.9c.9 0 2.8.3 3.4 1.2 0 0 .3.3.3 2.7v4.4s.3 1.4-1.2 1.4v-6.6h-.9v6.6l.6 9.6h-1.8l-.6-8.7h-.4-.3l-.6 8.7h-1.9l.6-9.6v-6.6h-.8v6.6c-1.9.1-1.9-1.4-1.9-1.4z"/><path d="m28.8 138.7h2.5c.6 0 .9.6.9 1.4v2.1 1.2c0 .3 0 .3-.3.3h-4c-.3 0-.3 0-.3-.3v-1.2-2.1c.3-.5.9-1.4 1.2-1.4z"/><path d="m30.9 149.7h-.9-.9l-.3-4.7h2.5z"/><ellipse cx="30" cy="137.3" rx=".9" ry=".9"/><path d="m113.2 60.8s0 .3 0 0c-.3.3-.6.6-.9.6-1.9 0-3.1-1.4-3.1-3 0-1.8 1.5-3 3.1-3 1.9 0 3.1 1.4 3.1 3v.9h-.3z"/><path d="m49.1 60.8-2.8-.6-.3.3c-.6-.6-1-1.5-1-2.4 0-1.8 1.5-3 3.1-3 1.9 0 3.1 1.4 3.1 3 0 1.5-.9 2.7-2.2 3 .1 0 .1-.3.1-.3z"/><path d="m106.9 74.3c.3 0 .3 0 .6.3-.3 0-.3.3-.6.3s-.3.3-.6.3c0-.3 0-.3.3-.6 0-.3 0-.3.3-.3z"/><path d="m124.4 92.1c-.6 0-3.7 0-5 0 0-.6.9-1.4 2.2-1.8-.3-.6-.9-5.7-.9-7.4-.9 2.1-2.2 5.7-2.5 8.4 0 .6 0 .9-.9.9h-4.3c0-.9 1.2-1.4 2.5-1.4.3-1.2 1.9-9.6 1.9-11.3.3-.6-.3-3.3-.3-4.4-.3-1.4-.3-2.7-.6-3.6-.3-1.8-.9-2.7-1.5-3-1.9 2.7-3.7 4.2-6.3 5.7-.3-.3-.9-.9-1.5-.9s-.9.3-1.2.6-.3.6-.3.6c-.3-.3-.3-1.2.6-1.8 3.4-2.4 4.7-5.1 6-7.1.9-2.1 1.9-3.6 1.5-4.4.9-.3 1.9-1.2 1.9-2.1 1.5.6 7.5 4.2 8.8 9.3 1.2 5.4 1.2 6 .9 8.7-.3 2.4 0 11 .6 14.3-.7.4-1 .7-1.6.7z"/><path d="m113.2 61.1 1.9-2.1h.3c-.4 1-1.3 1.8-2.2 2.1z"/><path d="m106.3 74.8v.6c.3.9 1.9 13.4 2.2 16.1 0 .3-.3.6-.6.6s-.6-.3-.6-.6c0 0-1.9-14.9-2.2-16.1 0-.6 0-.9 0-1.2.3.6.6.9 1.2.6z"/><path d="m109.1 75.1v.3l-.3.3c-.3 0-.6-.3-.6-.3 0-.6-.3-.9-.3-.9.3-.3.6-.3.9-.6 0 .4.3.9.3 1.2z"/><path d="m106.9 73c.9 0 1.2.3 1.5.9-.3.3-.6.3-.9.6 0-.3-.3-.3-.6-.3s-.3 0-.6.3c0 0 0 .3-.3.6-.6 0-.9-.3-.9-.6s.3-.6.3-.6c.3-.5.9-.9 1.5-.9z"/><path d="m54.4 68.6c1.2 1.2 2.8 2.1 4 2.4 1.5.3 1.2 2.4-.9 2.1-2.2-.6-4-1.2-5.4-2.1-1.2-.9-2.2-2.1-2.8-2.7-.6 1.2-.9 4.2 0 6.6s2.2 6 2.8 7.7c.6 1.8 1.5 6 1.9 6.9h2.2c.6 0 1.2.9 0 1.4-.9.6-2.2 1.2-3.4 1.2-.3 0-.9 0-1.2-.6-.4-1.7-2.2-6.8-3.2-8.3-.9-1.4-3.7-6.3-4-7.1-.6.9-3.1 5.4-4.7 6.9-1.5 1.4-3.1 3.3-4.4 4.2.3.6.3 1.2.9 1.2.9 0 1.2 1.4-.3 1.4-.9 0-1.5 0-2.5-1.2-.3-.6-.3-.9-.6-1.8-.3-.6 0-.9.3-1.2.6-.3 4.4-4.4 5.4-6 .9-1.4 3.7-6.6 3.4-12.8-1.5 1.2-2.8 3.3-2.8 5.7 0 1.4-.3 2.4-1.2 2.1-1.6.4-1.6-.8-1.6-2.3.3-3.6 3.4-9.6 6-10.7 2.2-.9 3.1-.6 3.7-1.2.6.6 1.2.9 2.2.9h.9c.3.9 1.2 1.4 1.9 2.7 1.2 1.6 2.5 3.7 3.4 4.6z"/><path d="m46.3 60.5 3.1.3v.3c-.3 0-.6 0-.9 0-1 .3-1.9 0-2.2-.6z"/><path d="m70.4 145.3h-1.2c-.9 0-1.2-.3-1.2-.9v-2.7c0-.3 0-.6-.3-.6-.3-.3-.6-.6-.6-.9-.3-.3-.3-.6-.3-1.2v-3.3c0-.6.6-1.2 1.2-1.2h.9c.3 0 .6-.6.3-.9s-.6-.6-.6-1.2c0-.9.6-1.4 1.5-1.4s1.5.6 1.5 1.4c0 .6-.3.9-.6 1.2s-.3.9.3.9h.9c.6 0 1.2.6 1.2 1.2v3.3c0 .6 0 .9-.3 1.2s-.3.6-.6.9-.3.3-.3.6v2.7c-.6.6-.9.9-1.8.9z"/><path d="m67.5 18.4h-.6l.3 12.3h-.9l-.3-6h-.6l-.3 6h-.9l.2-12.3h-.6l-.3 5.1h-.9l.3-5.1v-.3c0-.6.3-2.1 1.2-2.1h1.9 1.9c1.2 0 1.2 1.4 1.2 2.1v.3l.3 5.1h-.9z"/><path d="m130.1 101.4c-2.2 0-4-1.2-4.7-3v-.3l1.2-1.8c0-.3.3-.3.3 0 0 1.8 1.5 3.3 3.4 3.3s3.4-1.4 3.4-3.3c0-.9-.3-1.8-1.2-2.4v-2h.3c1.5.9 2.8 2.7 2.8 4.4-.3 3-2.4 5.1-5.5 5.1z"/><path d="m96.3 99.3h4.3 4.5v10.4h-2v9h-2.2v-9h-.3-.6v9h-2.1v-9h-1.6v-.3-4.7-2.1z"/><path d="m92.2 108.9c-.9 0-1.9-.6-1.9-1.8 0-.9.6-1.8 1.9-1.8.9 0 1.9.6 1.9 1.8-.4.9-1 1.8-1.9 1.8z"/><path d="m89.7 110.4h2.5 2.5c2.2 0 1.9 2.4 1.9 2.4v6.9c0 .6-.3.9-.9.9s-.9-.3-.9-.9v-6.6c0-.3-.3-.6-.6-.6s-.6.3-.6.6v5.4l1.9 8.7.3.6v.6c0 .6-.3.9-.9.9s-.9-.3-.9-.9l-1.5-6.9-1.5 6.9c0 .6-.6.9-.9.9-.6 0-.9-.3-.9-.9v-.6l.3-.6 1.9-8.7v-5.4c0-.3-.3-.6-.6-.6s-.6.3-.6.6v6.6c0 .6-.3.9-.9.9s-.9-.3-.9-.9v-6.9c-.8-.4-.8-2.4 1.3-2.4z"/><path d="m63.5 156.6h.3l.3.4h.3.3l.3-.4h.3l.3-.3v-.3h.3v-.3-.3-.3-.3h-.3v-.3l-.3-.2h-.3v-.3h-.3-.3-.3-.3v.3h-.3v.2h-.3v.3l-.3.3v.3.3l.3.3v.3h.3z"/><path d="m62.2 144.7 6.5 7.4 2.9-2.1-6.9-7.4z"/><path d="m106 144.1c-.3-.6-.6-1.4-.9-1.8-.3-.6-1.2-.6-1.9-.6 0 0 1.2 1.8 1.9 3z"/><path d="m99.4 144.7s.3 1.4.3 2.1c0 .3 0 .9-.3 1.4l1.5-.9c.3-.3.3-.9.3-.9-.6-.5-1.8-1.7-1.8-1.7z"/><path d="m95.7 204.1c.6-.3.9-.9.9-1.4 0-.9-.6-1.8-1.5-1.8s-1.5.9-1.5 1.8c0 .6.3 1.2.9 1.4h.6s.3 0 .6 0z"/><path d="m96.9 220.8v-7.2c1.2-.3 1.5-.9 1.5-1.4v-6.6c0-.9 0-1.4-2.8-1.4-.3 0-.3 0-.6 0s-.3 0-.6 0c-2.5 0-2.8.9-2.8 1.4v6.6c0 .6.3 1.2 1.2 1.2v7.1c0 .6.6.9 1.9.9 1.6.3 2.2 0 2.2-.6z"/><path d="m95.7 204.1c-.3 0-.3 0-.6 0s-.3 0-.6 0h.6c.3.3.3 0 .6 0z"/><path d="m58.4 162.3c0-1.4-1.2-3-3.1-3-1.5 0-3.1 1.2-3.1 3 0 1.4 1.2 3 3.1 3s3.1-1.2 3.1-3z"/><path d="m99.7 240.5v-6.9h.6v-4.7c0-.9-.6-1.4-1.2-1.4h-2.2c-.6 0-1.2.6-1.2 1.4v1.4 2.1 1.4h.9v6.9h3.1z"/><ellipse cx="98.2" cy="225.3" rx="1.5" ry="1.4"/><path d="m122.9 252.1h-1.9c-.6 0-.9.6-.9 1.2v1.2 1.8 1.2l.6.6.3 5.4h1.9l.3-5.4.6-.6v-4.2c.3-.6-.3-1.2-.9-1.2z"/><ellipse cx="122.2" cy="249.7" rx="1.5" ry="1.4"/><ellipse cx="118.1" cy="221.4" rx="1.2" ry="1.4"/><path d="m120.3 225.3c.6 0 .9.3.9.6v4.2c.6 0 1.2-.6 1.2-1.2v-3.3c0-1.2-1.2-1.8-2.5-1.8h-3.4c-1.5 0-2.2.6-2.2 1.8v3.3c0 .6.3 1.2 1.2 1.2v-3.9c0-.3 0-.6.9-.6v13.1c.6 0 1.5-.6 1.5-1.8v-6.6h.9v6.6c0 1.2.9 1.8 1.5 1.8z"/><ellipse cx="39.4" cy="250" rx=".9" ry="1.2"/><path d="m40.6 251.8h-2.8c-.9 0-1.2.9-1.2 1.2v3c0 .6.3.9.6.9h.3l-.6 6.6h1.5l.3-6.6h.6l.3 6.6h1.5l-.6-6.6h.3c.3 0 .6-.3.6-.9v-3c.5-.3.1-1.2-.8-1.2z"/><path d="m117.2 245.3c-.3 0-.6-.3-1.2-.3-.6-.3-.6-.6-.3-.9.3-.6.6-1.2.6-1.8 0-1.4-.9-2.4-2.5-2.4-1.2 0-2.5 1.2-2.5 2.4 0 .6 0 1.2.6 1.8s.3.9-.3.9c-.3 0-.6.3-1.2.3-1.2.3-1.9.9-1.9 1.8v5.1c0 .9.3 1.2.6 1.8l1.2 1.2c.3.3.6.6.6 1.4v5.4c0 .9 0 1.4 1.9 1.4h1.5c1.9 0 1.9-.6 1.9-1.4v-5.4c0-.6 0-1.2.6-1.4.3-.3.6-.6 1.2-1.2.3-.3.6-.9.6-1.8v-5.1c.5-1-.2-1.3-1.4-1.8z"/><ellipse cx="54.1" cy="203.4" rx="3.1" ry="3"/><path d="m60 207.4h-5.9-6l-.9 14.3h2.5l-1.3 16.4h3.8l1.9-16.4 1.5 16.4h3.8l-1-16.4h2.3z"/><ellipse cx="65.9" cy="159.6" rx="1.2" ry="1.4"/><path d="m67.5 175.7v-7.1h1.5v-4.4c0-.6-.3-2.1-1.5-2.1h-3.4c-1.2 0-1.5 1.4-1.5 2.1v4.4h1.9v7.1z"/><path d="m105.4 241.7c0-1.2-.9-1.8-1.9-1.8-1.2 0-1.9.9-1.9 1.8 0 1.2.9 2.1 1.9 2.1.9 0 1.9-1 1.9-2.1z"/><ellipse cx="80.7" cy="132.7" rx="2.2" ry="2.1"/><path d="m85.3 145.3h2.2l-2.5-8.4c-.3-1.2-1.9-1.2-1.9-1.2h-.3-1.2-.9-.9-1.2-.3s-1.5 0-1.9 1.2l-2.5 8.4h2.1l1.5-6 .9 3.3-2.2 13.7h2.2l2.2-10.1 2.2 10.1h2.2l-2.3-13.7.9-3.3z"/><ellipse cx="107.8" cy="203.4" rx="3.1" ry="3"/><path d="m112.3 238.4v-25.1h1.2v7.7h2.5v-8.7c0-2.4-1.2-3.9-4-4.4-1.5-.3-2.5-.3-3.7-.3-1.5 0-2.5 0-3.7.3-2.8.6-3.7 2.1-3.7 4.4v8.7h2.5v-8h1.2v25.1h2.8l1.2-15.8h-.4l1.2 15.8h2.8v.3z"/><path d="m96.9 175.1v-3.6h-1.5v3.6c0 .3.3.6.6.6.6 0 .9-.3.9-.6z"/><path d="m101.3 166.1v-3.6c0-.6-.9-1.2-1.5-1.2h-4.4c-.9 0-1.5.6-1.5 1.2v3.6c0 .6.3 1.2 1.2 1.4v-4.4h.9v7.7h3.7v-7.7h.9v4.2c.3.1.7-.6.7-1.2z"/><path d="m99.4 175.1v-3.6h-1.5v3.6c0 .3.3.6.6.6.6 0 .9-.3.9-.6z"/><ellipse cx="97.5" cy="158.7" rx="1.5" ry="1.4"/><ellipse cx="66.3" cy="201.4" rx="1.9" ry="1.8"/><ellipse cx="74.7" cy="158.7" rx="1.5" ry="1.4"/><path d="m75 160.8c-.6 0-.9.3-1.5.9l-3.1 3v3.9c.9 0 1.2-.6 1.2-1.2v-1.8l.9-.9s.3-.3.3.3v7.4l-1.9 2.1c-.9.9-.9 1.8-.3 2.7l3.7-3.3s.3-.3.3 0l.3 4.4c0 .9.6 1.8 1.9 1.8l-.3-10.1v-3.9s0-.3.3 0l2.2 2.7c.3.6 1.2.6 1.9 0l-4.4-6.9c-.6-.8-.9-1.1-1.5-1.1z"/><ellipse cx="113.5" cy="187.1" rx=".9" ry=".9"/><path d="m116.6 201.1v-3.9l-1.9-3.3v-1.4h1.9v-1.4h-1.9v-.9c0-.9-.9-.9-.9-.9-.9 0-.9.9-.9.9v11.3h1.5v-5.1h.3l.9 1.4v3.6h.9v-.3z"/><path d="m64.7 226.4h-2.8c-.6 0-1.2.9-1.2 1.8v5.4h5.3v-5.4c-.1-.8-.7-1.8-1.3-1.8z"/><path d="m64.4 224.7c0-.6-.6-1.2-1.2-1.2s-1.2.6-1.2 1.2.6 1.2 1.2 1.2c.6-.1 1.2-.6 1.2-1.2z"/><path d="m61.9 240.5h.3 1.9.6v-5.7h-2.8z"/><path d="m107.8 159.6c-1.5 0-2.8 1.2-2.8 2.7 0 .9.3 1.4.9 2.1.3.3.9.6 1.5.6s1.2-.3 1.5-.6c.6-.6.9-1.2.9-2.1.5-1.5-.7-2.7-2-2.7z"/><path d="m114.1 177.8v-8.4c0-2.4-1.5-4.2-3.7-4.2 0 1.4-1.2 2.7-2.5 2.7-1.5 0-2.5-1.2-2.5-2.7-2.2 0-3.7 1.8-3.7 4.2v8.4c0 3 2.2 3.9 2.8 3.9v14.9c0 1.2.6 2.1 1.2 2.1h1.9 1.9c.6 0 1.2-.9 1.2-2.1v-14.9c1.2 0 3.4-.9 3.4-3.9z"/><path d="m101.6 151.6s0-.6.3-.9c0-.3 1.2-1.8 1.9-2.4.3 1.2.9 2.7 1.2 3.3.3.3.9.9.9.9s0 .3.3.6 2.5 1.8 2.5 1.8v.3c0 .3 0 .3-.3.3s-.6.3-.6.6 0 .3.3.3h.9c.3 0 .6 0 .9-.3 0-.3.6-.9.6-1.2s0-.6 0-.9c-.3-.3-2.2-2.4-2.2-2.7-.3-.3-.6 0-.6 0s-.6-.6-.9-.9c0-.3-.3-2.7-.9-4.2l.6-.3c.3.6 1.5.3 1.2-.9s-.9-3.3-1.5-3.9c-.9-.6-3.7-1.2-4.7-.6-.9.3-.9.9-1.9.3 0-.3.3-.6.3-.6 0-.9-.9-1.8-1.9-1.8-.9 0-1.9.9-1.9 1.8 0 1 .9 1.8 1.9 1.8h.3c.6.6-.3 1.2-.6 2.1s.3 2.7.3 3.3-.6 2.1-.6 3l-.6.3h-.3-.3s-.6.3-1.2.6c-.3-.3-.3-.6-.6-.9s-.6-.3-.9-.3-.3-.6-.9-.6c-.6-.3-1.2.3-1.5.9-.6.9-3.1 5.7-3.4 6.3s-.3.9.3.9h8.8c.9 0 .3-2.1 0-2.7-.3-.3-.3-.6-.6-.9s-.3-.3-.3-.6c.6-.3.9-.6.9-.6s0-.3 0-.6l.9-.6c.3 0 .6 0 .9-.6l1.5-.9c-.3.6-.3.9-.3 1.2v1.4s-.3 0-.3.6v3c-.9.3-1.5.3-1.5.6s0 .3.3.3h2.2c.3 0 .6 0 .6-.6 0-.3.6-3.3.6-3.6.2-1.4-.1-1.4-.1-1.4zm3.5-9.6c.3.3.6 1.2.9 1.8l-.9.6c-.9-1.2-1.9-3-1.9-3 .2 0 1.5.3 1.9.6zm-4.5 5.1-1.5.9c.3-.6.3-1.2.3-1.4 0-.3-.3-2.1-.3-2.1s1.5 1.2 1.5 1.8c.3.1 0 .4 0 .8z"/><path d="m86.9 161.1c.9 0 1.9-.9 1.9-1.8 0-1-.9-1.7-1.9-1.7-.9 0-1.9.9-1.9 1.8-.1.9.9 1.7 1.9 1.7z"/><path d="m89.7 178.4c0-.6.3-10.1.3-13.7 0-1.2 0-1.4.9-2.4 1.2-1.2 3.1-3.3 3.7-3.9.9-.9-.3-2.1-1.5-1.2-.6.6-2.8 2.7-4 3.9-.6.6-1.2.6-1.9.6-.6 0-1.2-.3-1.9-.6-.9-.9-3.1-3.3-4-3.9-.9-.9-2.2.3-1.5 1.2.6.6 2.5 2.7 3.7 3.9.6.9.9.9.9 2.4 0 3.6.3 13.1.3 13.7 0 1.4 2.2 1.4 2.2 0 0-1.8 0-6.9 0-7.4 0-.6.3-.9.6-.9s.6.3.6.9v7.4c-.5 1.5 1.6 1.5 1.6 0z"/><ellipse cx="96" cy="178.7" rx="2.2" ry="2.1"/><path d="m94 196.9v-4.2l1.9-1.2c0 1.4.3 4.4.3 5.1.3.6 1.9 2.7 1.9 2.7 0 .3-.3.3-.3.3s-.6 0-.9.3c0 .3.3.3.3.6.3.3.3.3.6.3.6 0 1.9-1.2 2.2-1.4.3-.3.6-.6 0-1.2-.3-.6-1.5-2.4-1.5-2.7s.3-3.6.3-6c0 0 .3-.3.9-.3.3-.3.6-.3.6-1.2v-5.7c0-.3-.3-.6-.6-.6h-2.7c-.9 0-.9 0-1.2.3 0 0-1.5.9-3.4 1.8-.9.3-2.2.6-2.8.9v1.8c1.5-.3 3.7-.6 4.7-1.2v3.6s-2.8 1.8-3.1 2.4c-.3.3.3 3.6 0 3.6 0 0-.6-.3-.9 0-.3 0-.3.6 0 .9.9.6 1.9 1.4 2.5 1.8.9-.1 1.2-.4 1.2-.7z"/><path d="m88.5 185c-.9.3-.9 1.2.3 1.4z"/><path d="m90 184.4c0-.3-.3-.6-.6-.6s-.6.3-.6.6v.6c.3 0 .6-.3 1.2-.6z"/><path d="m88.8 186.4v7.7c0 .3.3.6.6.6s.6-.3.6-.6v-7.7h-.3c-.6 0-.6 0-.9 0z"/><path d="m88.8 185v1.4h.6.3v-1.8c-.3.1-.6.4-.9.4z"/><path d="m68.7 203.8h-5c-.9 0-1.9.6-1.9 1.4v5.4c0 .9.3 1.4 1.2 1.4v-5.7h1v3.3h4.4v-3.3h.9v5.7c.9 0 1.2-.6 1.2-1.4v-5.4c.2-.5-.8-1.4-1.8-1.4z"/><path d="m64.1 221.1c0 .3.3.6.9.6.3 0 .9-.3.9-.6v-7.1h.9v7.1c0 .3.3.6.9.6.3 0 .9-.3.9-.6v-9.9h-4.4v9.9z"/><path d="m62.2 179.9v-8c0-4.4-1.5-5.7-6.6-5.7s-6.6 1.2-6.6 5.7v8c0 1.4.9 2.1 2.2 2.1v-9.9c0-.6.3-1.2.9-1.2v11s.6 14 .6 15.6c0 .6.3.9 1.2.9h3.5c.9 0 .9-.3 1.2-.9 0-1.4.6-15.6.6-15.6s0-10.4 0-11c.6 0 .9.6.9 1.2v9.9c.9 0 2.1-.6 2.1-2.1z"/><path d="m47.2 188c0 .3.3.9.6.9v.6c-.9.3-1.9.9-1.9 2.1v2.7l.6.9-.3 6.3h1.2l.6-4.7.6 4.7h1.2l-.3-6.3.6-.9v-2.7c0-.9-.9-1.8-1.9-2.1v-.6c.3-.3.6-.6.6-.9 0-.6-.6-1.2-1.2-1.2.2.3-.4.6-.4 1.2z"/><path d="m42.8 231.3.3 7.1h2.5l.3-7.1h1.2v-6.6c0-.9-.6-1.4-1.2-1.4h-.6v-.6c.6-.3.9-.9.9-1.4 0-.9-.6-1.4-1.5-1.4s-1.5.6-1.5 1.4c0 .6.3 1.2.9 1.4v.6h-.9c-.6 0-1.2.6-1.2 1.4v6.6z"/><path d="m72.2 151-3.4 2.7-5-5.7c-.6-.6-2.5-2.1-2.8-2.4-.3-.6.3-2.1.6-3.3s0-1.2-.6-1.8c-.3-.3 0-.6.3-.9.6-.3 1.2-.9 1.2-1.8 0-1-.9-1.8-1.9-1.8-.9 0-1.9.9-1.9 1.8 0 .3.3.9.3 1.2.3.3.3.6-.3.9-.9.3-1.5.3-1.9.6-.6.9-.9 1.8-1.2 2.7s-.6 1.8-.9 2.7c-.6 1.2-.6 1.8-.6 1.8l-.9 4.4s-1.5 3.6-1.5 4.2v.9c0 .3.3.6.6.6h2.7c.3 0 .6-.6 0-.9-.3 0-1.2-.6-1.2-.6s.9-2.4 1.2-3.3.9-2.7.9-2.7l.3 2.4s-.3 3.9-.3 4.4c0 .3 0 .6.6.6h2.8c.3 0 .3-.3.3-.3s0-.3-.3-.6l-1.2-.6.6-3.3s0-3 0-4.2c.3.3 1.9.6 1.9.6l7.2 8 5.4-4.2z"/><path d="m48.8 243.8c.6-.3 1.2-1.2 1.2-2.1 0-1.2-.9-2.1-2.2-2.1-1.2 0-2.2.9-2.2 2.1 0 .9.6 1.4 1.2 2.1-2.2.3-3.7.6-3.7 2.7v6.9h.9l.6-3h.8v13.4h2.5l.3-8h.6l.3 8h2.5v-13.5h.6l.6 3h.9v-6.9c-.8-2-2.8-2.6-4.9-2.6z"/><path d="m60.7 244.4h-1.9v-.9c.6-.3.9-.9.9-1.8 0-1.2-.9-2.1-2.2-2.1-1.2 0-2.2.9-2.2 2.1 0 .6.3 1.4.9 1.8v.9h-1.2c-.6 0-1.2.6-1.2 1.2v7.4c0 .6.6 1.2 1.2 1.2v9c0 .6.6.9 1.2.9s1.2-.3 1.2-.9v-9h.6v9c0 .6.6.9 1.2.9s1.2-.3 1.2-.9v-9c.6 0 1.2-.6 1.2-1.2v-7.4c0-.9-.3-1.2-.9-1.2z"/><path d="m107.8 245.5c0-1.2-.6-2.1-2.2-2.1-.6.6-1.5 1.2-2.5 1.2-.9 0-1.9-.3-2.5-1.2-1.5 0-2.2.9-2.2 2.1v5.4c0 1.2 0 2.1 1.5 2.4l-.3 10.1h2.5l.3-10.1h.3.3l.3 10.1h2.5l-.3-10.1c1.5-.3 1.5-1.2 1.5-2.4v-5.4z"/><ellipse cx="69" cy="178.7" rx="1.9" ry="1.8"/><path d="m75 184.7h-2.5l-2.2-3c-.9-.9-2.8-.9-3.4-.6l-5 2.7-.9 3.3s0 .3.3.3l1.9.3s.3 0 .3-.3l.6-2.1 2.2-.9c.3-.3.3 0 .3 0l-1.2 4.4-4.7 9s-.3.3 0 .3l1.5.9h.3l3.7-7.4 5.4 7.4s.3.3.3 0l1.5-.9s.3 0 0-.3l-6-9 1.2-4.2s.3-.9.6-.3l1.9 2.4h3.9s.3 0 .3-.3l-.3-1.7c.3.3.3 0 0 0z"/><path d="m40 106.4c-1.2 0-2.5.6-2.5.9v3.9c0 .3.6.6 1.2.9v4.7h1.2.9.3v-4.6c.6-.3 1.2-.6 1.2-.9v-3.9c.5-.6-.8-1-2.3-1z"/></g></svg>